<?xml version="1.0" standalone="no"?>
<!DOCTYPE svg PUBLIC "-//W3C//DTD SVG 20010904//EN"
 "http://www.w3.org/TR/2001/REC-SVG-20010904/DTD/svg10.dtd">
<svg version="1.0" xmlns="http://www.w3.org/2000/svg"
 width="700.000000pt" height="700.000000pt" viewBox="0 0 700.000000 700.000000"
 preserveAspectRatio="xMidYMid meet">
<metadata>
Created by potrace 1.14, written by Peter Selinger 2001-2017
</metadata>
<g transform="translate(0.000000,700.000000) scale(0.100000,-0.100000)"
fill="#000000" stroke="none">
<path d="M3425 6157 c-141 -47 -222 -165 -213 -309 6 -84 28 -136 84 -193 59
-61 72 -143 39 -244 -8 -25 -15 -53 -15 -63 0 -17 -26 -18 -542 -20 l-543 -3
-1 -30 c-1 -16 -2 -37 -3 -47 -1 -12 -10 -16 -33 -15 -33 2 -33 3 -32 50 l2
48 -122 -2 c-150 -2 -218 -12 -325 -49 -204 -71 -385 -237 -477 -436 -34 -73
-74 -216 -74 -265 0 -24 4 -26 38 -26 65 -1 67 -1 68 -33 2 -32 0 -33 -58 -30
-27 1 -39 -3 -45 -17 -5 -10 -8 -170 -8 -355 1 -186 -2 -338 -7 -338 -4 0 -8
4 -8 10 0 5 -11 17 -25 26 -33 22 -203 24 -241 3 -52 -27 -51 -14 -50 -746 l1
-683 28 -27 c27 -27 31 -28 137 -28 106 0 110 1 138 28 l29 28 0 -328 -1 -328
55 -5 c52 -5 54 -6 54 -35 -1 -28 -3 -30 -40 -31 -22 -1 -46 -2 -52 -3 -18 -1
-16 -75 3 -169 43 -210 171 -399 349 -517 101 -67 196 -107 305 -131 19 -5
393 -10 831 -11 l795 -3 1 45 c1 53 2 56 37 59 28 3 29 1 28 -67 l-1 -38 802
3 c784 3 804 4 877 25 225 64 408 206 518 403 58 104 97 236 101 345 l2 60
-43 0 c-41 0 -43 1 -46 33 -3 32 -3 32 42 32 30 0 46 4 46 13 0 6 1 161 1 342
0 185 4 321 8 310 5 -11 19 -29 31 -40 19 -17 36 -20 131 -20 105 0 109 1 136
28 l28 27 1 678 c1 724 1 724 -49 751 -29 16 -180 21 -220 8 -16 -5 -37 -24
-48 -41 -19 -31 -19 -29 -19 337 l0 369 -27 -2 c-60 -4 -64 -2 -61 33 3 30 6
32 40 32 20 0 39 3 43 7 11 10 -14 141 -41 215 -91 251 -294 441 -554 521 -62
19 -103 24 -252 29 l-146 5 0 -38 c0 -60 0 -61 -32 -62 -31 -1 -32 1 -33 76
l0 22 -533 0 c-530 0 -534 0 -534 20 0 11 -7 36 -15 55 -17 42 -22 115 -12
171 6 28 20 52 45 76 62 59 87 120 87 213 0 64 -5 90 -24 129 -30 60 -87 117
-145 146 -55 26 -158 34 -211 17z"/>
</g>
</svg>
